<svg aria-roledescription="flowchart-v2" role="graphics-document document" viewBox="-8 -8 910.6103515625 1325.794921875" style="max-width: 910.6103515625px;" xmlns="http://www.w3.org/2000/svg" width="100%" id="mermaid-svg-1766360717894-jxhtri8tz"><style>#mermaid-svg-1766360717894-jxhtri8tz{font-family:"trebuchet ms",verdana,arial,sans-serif;font-size:16px;fill:#a9b7c6;}#mermaid-svg-1766360717894-jxhtri8tz .error-icon{fill:#5a1d1d;}#mermaid-svg-1766360717894-jxhtri8tz .error-text{fill:#f48771;stroke:#f48771;}#mermaid-svg-1766360717894-jxhtri8tz .edge-thickness-normal{stroke-width:2px;}#mermaid-svg-1766360717894-jxhtri8tz .edge-thickness-thick{stroke-width:3.5px;}#mermaid-svg-1766360717894-jxhtri8tz .edge-pattern-solid{stroke-dasharray:0;}#mermaid-svg-1766360717894-jxhtri8tz .edge-pattern-dashed{stroke-dasharray:3;}#mermaid-svg-1766360717894-jxhtri8tz .edge-pattern-dotted{stroke-dasharray:2;}#mermaid-svg-1766360717894-jxhtri8tz .marker{fill:rgba(204, 204, 204, 0.7);stroke:rgba(204, 204, 204, 0.7);}#mermaid-svg-1766360717894-jxhtri8tz .marker.cross{stroke:rgba(204, 204, 204, 0.7);}#mermaid-svg-1766360717894-jxhtri8tz svg{font-family:"trebuchet ms",verdana,arial,sans-serif;font-size:16px;}#mermaid-svg-1766360717894-jxhtri8tz .label{font-family:"trebuchet ms",verdana,arial,sans-serif;color:#a9b7c6;}#mermaid-svg-1766360717894-jxhtri8tz .cluster-label text{fill:#a9b7c6;}#mermaid-svg-1766360717894-jxhtri8tz .cluster-label span,#mermaid-svg-1766360717894-jxhtri8tz p{color:#a9b7c6;}#mermaid-svg-1766360717894-jxhtri8tz .label text,#mermaid-svg-1766360717894-jxhtri8tz span,#mermaid-svg-1766360717894-jxhtri8tz p{fill:#a9b7c6;color:#a9b7c6;}#mermaid-svg-1766360717894-jxhtri8tz .node rect,#mermaid-svg-1766360717894-jxhtri8tz .node circle,#mermaid-svg-1766360717894-jxhtri8tz .node ellipse,#mermaid-svg-1766360717894-jxhtri8tz .node polygon,#mermaid-svg-1766360717894-jxhtri8tz .node path{fill:#2b2b2b;stroke:#323232;stroke-width:1px;}#mermaid-svg-1766360717894-jxhtri8tz .flowchart-label text{text-anchor:middle;}#mermaid-svg-1766360717894-jxhtri8tz .node .label{text-align:center;}#mermaid-svg-1766360717894-jxhtri8tz .node.clickable{cursor:pointer;}#mermaid-svg-1766360717894-jxhtri8tz .arrowheadPath{fill:#d4d4d4;}#mermaid-svg-1766360717894-jxhtri8tz .edgePath .path{stroke:rgba(204, 204, 204, 0.7);stroke-width:2.0px;}#mermaid-svg-1766360717894-jxhtri8tz .flowchart-link{stroke:rgba(204, 204, 204, 0.7);fill:none;}#mermaid-svg-1766360717894-jxhtri8tz .edgeLabel{background-color:#2b2b2b99;text-align:center;}#mermaid-svg-1766360717894-jxhtri8tz .edgeLabel rect{opacity:0.5;background-color:#2b2b2b99;fill:#2b2b2b99;}#mermaid-svg-1766360717894-jxhtri8tz .labelBkg{background-color:rgba(43, 43, 43, 0.5);}#mermaid-svg-1766360717894-jxhtri8tz .cluster rect{fill:rgba(58, 61, 65, 0.31);stroke:#323232;stroke-width:1px;}#mermaid-svg-1766360717894-jxhtri8tz .cluster text{fill:#a9b7c6;}#mermaid-svg-1766360717894-jxhtri8tz .cluster span,#mermaid-svg-1766360717894-jxhtri8tz p{color:#a9b7c6;}#mermaid-svg-1766360717894-jxhtri8tz div.mermaidTooltip{position:absolute;text-align:center;max-width:200px;padding:2px;font-family:"trebuchet ms",verdana,arial,sans-serif;font-size:12px;background:#264f78;border:1px solid #323232;border-radius:2px;pointer-events:none;z-index:100;}#mermaid-svg-1766360717894-jxhtri8tz .flowchartTitleText{text-anchor:middle;font-size:18px;fill:#a9b7c6;}#mermaid-svg-1766360717894-jxhtri8tz :root{--mermaid-font-family:"trebuchet ms",verdana,arial,sans-serif;}#mermaid-svg-1766360717894-jxhtri8tz .outside rect{fill:#ffd54f!important;stroke:#f57f17!important;stroke-width:2px!important;color:#000!important;}#mermaid-svg-1766360717894-jxhtri8tz .outside polygon{fill:#ffd54f!important;stroke:#f57f17!important;stroke-width:2px!important;color:#000!important;}#mermaid-svg-1766360717894-jxhtri8tz .outside ellipse{fill:#ffd54f!important;stroke:#f57f17!important;stroke-width:2px!important;color:#000!important;}#mermaid-svg-1766360717894-jxhtri8tz .outside circle{fill:#ffd54f!important;stroke:#f57f17!important;stroke-width:2px!important;color:#000!important;}#mermaid-svg-1766360717894-jxhtri8tz .outside path{fill:#ffd54f!important;stroke:#f57f17!important;stroke-width:2px!important;color:#000!important;}#mermaid-svg-1766360717894-jxhtri8tz .outside tspan{fill:#000!important;}#mermaid-svg-1766360717894-jxhtri8tz .rabbit rect{fill:#29b6f6!important;stroke:#0277bd!important;stroke-width:3px!important;color:#000!important;}#mermaid-svg-1766360717894-jxhtri8tz .rabbit polygon{fill:#29b6f6!important;stroke:#0277bd!important;stroke-width:3px!important;color:#000!important;}#mermaid-svg-1766360717894-jxhtri8tz .rabbit ellipse{fill:#29b6f6!important;stroke:#0277bd!important;stroke-width:3px!important;color:#000!important;}#mermaid-svg-1766360717894-jxhtri8tz .rabbit circle{fill:#29b6f6!important;stroke:#0277bd!important;stroke-width:3px!important;color:#000!important;}#mermaid-svg-1766360717894-jxhtri8tz .rabbit path{fill:#29b6f6!important;stroke:#0277bd!important;stroke-width:3px!important;color:#000!important;}#mermaid-svg-1766360717894-jxhtri8tz .rabbit tspan{fill:#000!important;}#mermaid-svg-1766360717894-jxhtri8tz .worker rect{fill:#b39ddb!important;stroke:#5e35b1!important;stroke-width:2px!important;color:#000!important;}#mermaid-svg-1766360717894-jxhtri8tz .worker polygon{fill:#b39ddb!important;stroke:#5e35b1!important;stroke-width:2px!important;color:#000!important;}#mermaid-svg-1766360717894-jxhtri8tz .worker ellipse{fill:#b39ddb!important;stroke:#5e35b1!important;stroke-width:2px!important;color:#000!important;}#mermaid-svg-1766360717894-jxhtri8tz .worker circle{fill:#b39ddb!important;stroke:#5e35b1!important;stroke-width:2px!important;color:#000!important;}#mermaid-svg-1766360717894-jxhtri8tz .worker path{fill:#b39ddb!important;stroke:#5e35b1!important;stroke-width:2px!important;color:#000!important;}#mermaid-svg-1766360717894-jxhtri8tz .worker tspan{fill:#000!important;}#mermaid-svg-1766360717894-jxhtri8tz .mysql rect{fill:#4db6ac!important;stroke:#00695c!important;stroke-width:3px!important;color:#000!important;}#mermaid-svg-1766360717894-jxhtri8tz .mysql polygon{fill:#4db6ac!important;stroke:#00695c!important;stroke-width:3px!important;color:#000!important;}#mermaid-svg-1766360717894-jxhtri8tz .mysql ellipse{fill:#4db6ac!important;stroke:#00695c!important;stroke-width:3px!important;color:#000!important;}#mermaid-svg-1766360717894-jxhtri8tz .mysql circle{fill:#4db6ac!important;stroke:#00695c!important;stroke-width:3px!important;color:#000!important;}#mermaid-svg-1766360717894-jxhtri8tz .mysql path{fill:#4db6ac!important;stroke:#00695c!important;stroke-width:3px!important;color:#000!important;}#mermaid-svg-1766360717894-jxhtri8tz .mysql tspan{fill:#000!important;}#mermaid-svg-1766360717894-jxhtri8tz .redis rect{fill:#ef5350!important;stroke:#c62828!important;stroke-width:4px!important;color:#000!important;}#mermaid-svg-1766360717894-jxhtri8tz .redis polygon{fill:#ef5350!important;stroke:#c62828!important;stroke-width:4px!important;color:#000!important;}#mermaid-svg-1766360717894-jxhtri8tz .redis ellipse{fill:#ef5350!important;stroke:#c62828!important;stroke-width:4px!important;color:#000!important;}#mermaid-svg-1766360717894-jxhtri8tz .redis circle{fill:#ef5350!important;stroke:#c62828!important;stroke-width:4px!important;color:#000!important;}#mermaid-svg-1766360717894-jxhtri8tz .redis path{fill:#ef5350!important;stroke:#c62828!important;stroke-width:4px!important;color:#000!important;}#mermaid-svg-1766360717894-jxhtri8tz .redis tspan{fill:#000!important;}#mermaid-svg-1766360717894-jxhtri8tz .hubspot rect{fill:#ff8a65!important;stroke:#d84315!important;stroke-width:3px!important;color:#000!important;}#mermaid-svg-1766360717894-jxhtri8tz .hubspot polygon{fill:#ff8a65!important;stroke:#d84315!important;stroke-width:3px!important;color:#000!important;}#mermaid-svg-1766360717894-jxhtri8tz .hubspot ellipse{fill:#ff8a65!important;stroke:#d84315!important;stroke-width:3px!important;color:#000!important;}#mermaid-svg-1766360717894-jxhtri8tz .hubspot circle{fill:#ff8a65!important;stroke:#d84315!important;stroke-width:3px!important;color:#000!important;}#mermaid-svg-1766360717894-jxhtri8tz .hubspot path{fill:#ff8a65!important;stroke:#d84315!important;stroke-width:3px!important;color:#000!important;}#mermaid-svg-1766360717894-jxhtri8tz .hubspot tspan{fill:#000!important;}</style><g><marker orient="auto" markerHeight="12" markerWidth="12" markerUnits="userSpaceOnUse" refY="5" refX="6" viewBox="0 0 10 10" class="marker flowchart" id="mermaid-svg-1766360717894-jxhtri8tz_flowchart-pointEnd"><path style="stroke-width: 1; stroke-dasharray: 1, 0;" class="arrowMarkerPath" d="M 0 0 L 10 5 L 0 10 z"/></marker><marker orient="auto" markerHeight="12" markerWidth="12" markerUnits="userSpaceOnUse" refY="5" refX="4.5" viewBox="0 0 10 10" class="marker flowchart" id="mermaid-svg-1766360717894-jxhtri8tz_flowchart-pointStart"><path style="stroke-width: 1; stroke-dasharray: 1, 0;" class="arrowMarkerPath" d="M 0 5 L 10 10 L 10 0 z"/></marker><marker orient="auto" markerHeight="11" markerWidth="11" markerUnits="userSpaceOnUse" refY="5" refX="11" viewBox="0 0 10 10" class="marker flowchart" id="mermaid-svg-1766360717894-jxhtri8tz_flowchart-circleEnd"><circle style="stroke-width: 1; stroke-dasharray: 1, 0;" class="arrowMarkerPath" r="5" cy="5" cx="5"/></marker><marker orient="auto" markerHeight="11" markerWidth="11" markerUnits="userSpaceOnUse" refY="5" refX="-1" viewBox="0 0 10 10" class="marker flowchart" id="mermaid-svg-1766360717894-jxhtri8tz_flowchart-circleStart"><circle style="stroke-width: 1; stroke-dasharray: 1, 0;" class="arrowMarkerPath" r="5" cy="5" cx="5"/></marker><marker orient="auto" markerHeight="11" markerWidth="11" markerUnits="userSpaceOnUse" refY="5.2" refX="12" viewBox="0 0 11 11" class="marker cross flowchart" id="mermaid-svg-1766360717894-jxhtri8tz_flowchart-crossEnd"><path style="stroke-width: 2; stroke-dasharray: 1, 0;" class="arrowMarkerPath" d="M 1,1 l 9,9 M 10,1 l -9,9"/></marker><marker orient="auto" markerHeight="11" markerWidth="11" markerUnits="userSpaceOnUse" refY="5.2" refX="-1" viewBox="0 0 11 11" class="marker cross flowchart" id="mermaid-svg-1766360717894-jxhtri8tz_flowchart-crossStart"><path style="stroke-width: 2; stroke-dasharray: 1, 0;" class="arrowMarkerPath" d="M 1,1 l 9,9 M 10,1 l -9,9"/></marker><g class="root"><g class="clusters"/><g class="edgePaths"><path marker-end="url(#mermaid-svg-1766360717894-jxhtri8tz_flowchart-pointEnd)" style="fill:none;" class="edge-thickness-normal edge-pattern-solid flowchart-link LS-Product LE-MQ_events" id="L-Product-MQ_events-0" d="M235.445,49.32L235.445,53.486C235.445,57.653,235.445,65.986,235.445,73.436C235.445,80.886,235.445,87.453,235.445,90.736L235.445,94.02"/><path marker-end="url(#mermaid-svg-1766360717894-jxhtri8tz_flowchart-pointEnd)" style="fill:none;" class="edge-thickness-normal edge-pattern-solid flowchart-link LS-MQ_events LE-MetaW" id="L-MQ_events-MetaW-0" d="M235.445,148.639L235.445,152.806C235.445,156.973,235.445,165.306,235.445,172.756C235.445,180.206,235.445,186.773,235.445,190.056L235.445,193.339"/><path marker-end="url(#mermaid-svg-1766360717894-jxhtri8tz_flowchart-pointEnd)" style="fill:none;" class="edge-thickness-normal edge-pattern-solid flowchart-link LS-MetaW LE-MySQL" id="L-MetaW-MySQL-0" d="M318.658,247.959L332.718,252.126C346.778,256.292,374.899,264.626,388.959,277.069C403.019,289.512,403.019,306.066,403.019,322.619C403.019,339.172,403.019,355.725,403.019,372.279C403.019,388.832,403.019,405.385,403.019,421.938C403.019,438.492,403.019,455.045,403.019,471.598C403.019,488.152,403.019,504.705,403.019,521.258C403.019,537.811,403.019,554.365,403.019,570.918C403.019,587.471,403.019,604.024,403.019,620.578C403.019,637.131,403.019,653.684,403.019,671.571C403.019,689.458,403.019,708.677,403.019,727.897C403.019,747.117,403.019,766.337,403.019,784.224C403.019,802.111,403.019,818.664,403.019,835.217C403.019,851.77,403.019,868.324,403.019,884.877C403.019,901.43,403.019,917.983,403.019,936.063C403.019,954.143,403.019,973.75,403.019,994.69C403.019,1015.63,403.019,1037.903,403.019,1058.649C403.019,1079.396,403.019,1098.616,403.019,1116.503C403.019,1134.389,403.019,1150.942,403.019,1169.022C403.019,1187.102,403.019,1206.709,403.839,1221.335C404.659,1235.96,406.298,1245.605,407.118,1250.428L407.938,1255.25"/><path marker-end="url(#mermaid-svg-1766360717894-jxhtri8tz_flowchart-pointEnd)" style="fill:none;" class="edge-thickness-normal edge-pattern-solid flowchart-link LS-MetaW LE-MQ_meta" id="L-MetaW-MQ_meta-0" d="M190.68,247.959L183.116,252.126C175.552,256.292,160.424,264.626,152.86,272.076C145.297,279.526,145.297,286.092,145.297,289.376L145.297,292.659"/><path marker-end="url(#mermaid-svg-1766360717894-jxhtri8tz_flowchart-pointEnd)" style="fill:none;" class="edge-thickness-normal edge-pattern-solid flowchart-link LS-MQ_meta LE-Agg" id="L-MQ_meta-Agg-0" d="M145.297,347.279L145.297,351.445C145.297,355.612,145.297,363.945,145.297,371.395C145.297,378.845,145.297,385.412,145.297,388.695L145.297,391.979"/><path marker-end="url(#mermaid-svg-1766360717894-jxhtri8tz_flowchart-pointEnd)" style="fill:none;" class="edge-thickness-normal edge-pattern-solid flowchart-link LS-Agg LE-RedisSet" id="L-Agg-RedisSet-0" d="M103.69,446.598L96.66,450.765C89.63,454.932,75.57,463.265,68.54,475.708C61.51,488.152,61.51,504.705,61.51,521.258C61.51,537.811,61.51,554.365,61.51,570.918C61.51,587.471,61.51,604.024,61.51,620.578C61.51,637.131,61.51,653.684,61.51,671.571C61.51,689.458,61.51,708.677,61.51,727.897C61.51,747.117,61.51,766.337,61.51,784.224C61.51,802.111,61.51,818.664,61.51,835.217C61.51,851.77,61.51,868.324,61.51,884.877C61.51,901.43,61.51,917.983,61.51,936.063C61.51,954.143,61.51,973.75,67.958,988.696C74.406,1003.641,87.303,1013.927,93.752,1019.069L100.2,1024.212"/><path marker-end="url(#mermaid-svg-1766360717894-jxhtri8tz_flowchart-pointEnd)" style="fill:none;" class="edge-thickness-normal edge-pattern-solid flowchart-link LS-Agg LE-MQ_sched" id="L-Agg-MQ_sched-0" d="M186.903,446.598L193.933,450.765C200.963,454.932,215.023,463.265,222.054,470.715C229.084,478.165,229.084,484.732,229.084,488.015L229.084,491.298"/><path marker-end="url(#mermaid-svg-1766360717894-jxhtri8tz_flowchart-pointEnd)" style="fill:none;" class="edge-thickness-normal edge-pattern-solid flowchart-link LS-MQ_sched LE-SWriter" id="L-MQ_sched-SWriter-0" d="M229.084,545.918L229.084,550.085C229.084,554.251,229.084,562.585,229.084,570.035C229.084,577.485,229.084,584.051,229.084,587.335L229.084,590.618"/><path marker-end="url(#mermaid-svg-1766360717894-jxhtri8tz_flowchart-pointEnd)" style="fill:none;" class="edge-thickness-normal edge-pattern-solid flowchart-link LS-SWriter LE-RedisWait" id="L-SWriter-RedisWait-0" d="M229.084,645.238L229.084,649.404C229.084,653.571,229.084,661.904,229.084,669.354C229.084,676.804,229.084,683.371,229.084,686.654L229.084,689.938"/><path marker-end="url(#mermaid-svg-1766360717894-jxhtri8tz_flowchart-pointEnd)" style="fill:none;" class="edge-thickness-normal edge-pattern-solid flowchart-link LS-RedisWait LE-SReader" id="L-RedisWait-SReader-0" d="M229.084,760.557L229.084,764.724C229.084,768.891,229.084,777.224,229.084,784.674C229.084,792.124,229.084,798.691,229.084,801.974L229.084,805.257"/><path marker-end="url(#mermaid-svg-1766360717894-jxhtri8tz_flowchart-pointEnd)" style="fill:none;" class="edge-thickness-normal edge-pattern-solid flowchart-link LS-SReader LE-Dispatch" id="L-SReader-Dispatch-0" d="M229.084,859.877L229.084,864.044C229.084,868.21,229.084,876.544,229.084,883.994C229.084,891.444,229.084,898.01,229.084,901.294L229.084,904.577"/><path marker-end="url(#mermaid-svg-1766360717894-jxhtri8tz_flowchart-pointEnd)" style="fill:none;" class="edge-thickness-normal edge-pattern-solid flowchart-link LS-Dispatch LE-RedisSet" id="L-Dispatch-RedisSet-0" d="M229.084,959.197L229.084,964.89C229.084,970.583,229.084,981.97,222.635,992.806C216.187,1003.641,203.29,1013.927,196.842,1019.069L190.393,1024.212"/><path marker-end="url(#mermaid-svg-1766360717894-jxhtri8tz_flowchart-pointEnd)" style="fill:none;" class="edge-thickness-normal edge-pattern-solid flowchart-link LS-Dispatch LE-MQ_agg" id="L-Dispatch-MQ_agg-0" d="M336.11,949.42L388.77,956.742C441.43,964.065,546.75,978.711,599.411,992.177C652.071,1005.643,652.071,1017.93,652.071,1024.073L652.071,1030.216"/><path marker-end="url(#mermaid-svg-1766360717894-jxhtri8tz_flowchart-pointEnd)" style="fill:none;" class="edge-thickness-normal edge-pattern-solid flowchart-link LS-MQ_agg LE-Updater" id="L-MQ_agg-Updater-0" d="M652.071,1084.836L652.071,1090.336C652.071,1095.836,652.071,1106.836,652.071,1115.619C652.071,1124.403,652.071,1130.969,652.071,1134.253L652.071,1137.536"/><path marker-end="url(#mermaid-svg-1766360717894-jxhtri8tz_flowchart-pointEnd)" style="fill:none;" class="edge-thickness-normal edge-pattern-solid flowchart-link LS-Updater LE-HSCreate" id="L-Updater-HSCreate-0" d="M658.93,1192.156L660.514,1197.849C662.097,1203.542,665.265,1214.929,666.848,1225.432C668.432,1235.935,668.432,1245.555,668.432,1250.365L668.432,1255.175"/><path marker-end="url(#mermaid-svg-1766360717894-jxhtri8tz_flowchart-pointEnd)" style="fill:none;" class="edge-thickness-normal edge-pattern-solid flowchart-link LS-Updater LE-HSUpdate" id="L-Updater-HSUpdate-0" d="M725.306,1192.156L742.214,1197.849C759.123,1203.542,792.939,1214.929,809.847,1225.432C826.755,1235.935,826.755,1245.555,826.755,1250.365L826.755,1255.175"/><path marker-end="url(#mermaid-svg-1766360717894-jxhtri8tz_flowchart-pointEnd)" style="fill:none;" class="edge-thickness-normal edge-pattern-solid flowchart-link LS-Updater LE-MySQL" id="L-Updater-MySQL-0" d="M586.106,1192.156L570.877,1197.849C555.648,1203.542,525.189,1214.929,502.767,1225.799C480.346,1236.67,465.962,1247.024,458.769,1252.202L451.577,1257.379"/></g><g class="edgeLabels"><g class="edgeLabel"><g transform="translate(0, 0)" class="label"><rect height="0" width="0" ry="0" rx="0"/><text style=""><tspan class="row" x="0" dy="1em" xml:space="preserve"/></text></g></g><g class="edgeLabel"><g transform="translate(0, 0)" class="label"><rect height="0" width="0" ry="0" rx="0"/><text style=""><tspan class="row" x="0" dy="1em" xml:space="preserve"/></text></g></g><g class="edgeLabel"><g transform="translate(0, 0)" class="label"><rect height="0" width="0" ry="0" rx="0"/><text style=""><tspan class="row" x="0" dy="1em" xml:space="preserve"/></text></g></g><g class="edgeLabel"><g transform="translate(0, 0)" class="label"><rect height="0" width="0" ry="0" rx="0"/><text style=""><tspan class="row" x="0" dy="1em" xml:space="preserve"/></text></g></g><g class="edgeLabel"><g transform="translate(0, 0)" class="label"><rect height="0" width="0" ry="0" rx="0"/><text style=""><tspan class="row" x="0" dy="1em" xml:space="preserve"/></text></g></g><g class="edgeLabel"><g transform="translate(0, 0)" class="label"><rect height="0" width="0" ry="0" rx="0"/><text style=""><tspan class="row" x="0" dy="1em" xml:space="preserve"/></text></g></g><g class="edgeLabel"><g transform="translate(0, 0)" class="label"><rect height="0" width="0" ry="0" rx="0"/><text style=""><tspan class="row" x="0" dy="1em" xml:space="preserve"/></text></g></g><g class="edgeLabel"><g transform="translate(0, 0)" class="label"><rect height="0" width="0" ry="0" rx="0"/><text style=""><tspan class="row" x="0" dy="1em" xml:space="preserve"/></text></g></g><g class="edgeLabel"><g transform="translate(0, 0)" class="label"><rect height="0" width="0" ry="0" rx="0"/><text style=""><tspan class="row" x="0" dy="1em" xml:space="preserve"/></text></g></g><g class="edgeLabel"><g transform="translate(0, 0)" class="label"><rect height="0" width="0" ry="0" rx="0"/><text style=""><tspan class="row" x="0" dy="1em" xml:space="preserve"/></text></g></g><g class="edgeLabel"><g transform="translate(0, 0)" class="label"><rect height="0" width="0" ry="0" rx="0"/><text style=""><tspan class="row" x="0" dy="1em" xml:space="preserve"/></text></g></g><g transform="translate(229.08358001708984, 993.3563928604126)" class="edgeLabel"><g transform="translate(-51.06454086303711, -9.159829139709473)" class="label"><rect height="18.319866180419922" width="102.13024139404297" ry="0" rx="0"/><text style=""><tspan class="row" x="0" dy="1em" xml:space="preserve">reads &amp; clears</tspan></text></g></g><g class="edgeLabel"><g transform="translate(0, 0)" class="label"><rect height="0" width="0" ry="0" rx="0"/><text style=""><tspan class="row" x="0" dy="1em" xml:space="preserve"/></text></g></g><g class="edgeLabel"><g transform="translate(0, 0)" class="label"><rect height="0" width="0" ry="0" rx="0"/><text style=""><tspan class="row" x="0" dy="1em" xml:space="preserve"/></text></g></g><g transform="translate(668.4320526123047, 1226.3153638839722)" class="edgeLabel"><g transform="translate(-55.62938690185547, -9.159829139709473)" class="label"><rect height="18.319866180419922" width="111.26004028320312" ry="0" rx="0"/><text style=""><tspan class="row" x="0" dy="1em" xml:space="preserve">New companies</tspan></text></g></g><g transform="translate(826.7553405761719, 1226.3153638839722)" class="edgeLabel"><g transform="translate(-67.85504913330078, -9.159829139709473)" class="label"><rect height="18.319866180419922" width="135.71163940429688" ry="0" rx="0"/><text style=""><tspan class="row" x="0" dy="1em" xml:space="preserve">Existing companies</tspan></text></g></g><g class="edgeLabel"><g transform="translate(0, 0)" class="label"><rect height="0" width="0" ry="0" rx="0"/><text style=""><tspan class="row" x="0" dy="1em" xml:space="preserve"/></text></g></g></g><g class="nodes"><g transform="translate(235.4449920654297, 24.659828186035156)" id="flowchart-Product-4889" class="node default outside flowchart-label"><rect height="49.31965637207031" width="214.02288818359375" y="-24.659828186035156" x="-107.01144409179688" ry="0" rx="0" style="" class="basic label-container"/><g transform="translate(0, -17.159828186035156)" style="" class="label"><rect/><text style=""><tspan class="row" x="0" dy="1em" xml:space="preserve">Connecteam Product</tspan><tspan class="row" x="0" dy="1em" xml:space="preserve">(company created / signup)</tspan></text></g></g><g transform="translate(235.4449920654297, 123.97948455810547)" id="flowchart-MQ_events-4890" class="node default rabbit flowchart-label"><rect height="49.31965637207031" width="260.39453125" y="-24.659828186035156" x="-130.197265625" ry="0" rx="0" style="" class="basic label-container"/><g transform="translate(0, -17.159828186035156)" style="" class="label"><rect/><text style=""><tspan class="row" x="0" dy="1em" xml:space="preserve">RabbitMQ</tspan><tspan class="row" x="0" dy="1em" xml:space="preserve">queue: company_events_webhook</tspan></text></g></g><g transform="translate(235.4449920654297, 223.29914093017578)" id="flowchart-MetaW-4891" class="node default worker flowchart-label"><rect height="49.31965637207031" width="266.2474822998047" y="-24.659828186035156" x="-133.12374114990234" ry="0" rx="0" style="" class="basic label-container"/><g transform="translate(0, -17.159828186035156)" style="" class="label"><rect/><text style=""><tspan class="row" x="0" dy="1em" xml:space="preserve">Worker: company_metadata</tspan><tspan class="row" x="0" dy="1em" xml:space="preserve">(updates MySQL, publishes change)</tspan></text></g></g><g transform="translate(413.0188293457031, 1285.1350212097168)" id="flowchart-MySQL-4892" class="node default mysql flowchart-label"><rect height="49.31965637207031" width="271.6333923339844" y="-24.659828186035156" x="-135.8166961669922" ry="0" rx="0" style="" class="basic label-container"/><g transform="translate(0, -17.159828186035156)" style="" class="label"><rect/><text style=""><tspan class="row" x="0" dy="1em" xml:space="preserve">MySQL BI DB</tspan><tspan class="row" x="0" dy="1em" xml:space="preserve">(company_profile_meta_data, etc.)</tspan></text></g></g><g transform="translate(145.29666137695312, 322.6187973022461)" id="flowchart-MQ_meta-4893" class="node default rabbit flowchart-label"><rect height="49.31965637207031" width="278.3224792480469" y="-24.659828186035156" x="-139.16123962402344" ry="0" rx="0" style="" class="basic label-container"/><g transform="translate(0, -17.159828186035156)" style="" class="label"><rect/><text style=""><tspan class="row" x="0" dy="1em" xml:space="preserve">RabbitMQ</tspan><tspan class="row" x="0" dy="1em" xml:space="preserve">queue: company_metadata_changed</tspan></text></g></g><g transform="translate(145.29666137695312, 421.9384536743164)" id="flowchart-Agg-4894" class="node default worker flowchart-label"><rect height="49.31965637207031" width="290.59332275390625" y="-24.659828186035156" x="-145.29666137695312" ry="0" rx="0" style="" class="basic label-container"/><g transform="translate(0, -17.159828186035156)" style="" class="label"><rect/><text style=""><tspan class="row" x="0" dy="1em" xml:space="preserve">Worker: hubspot_company_aggregator</tspan><tspan class="row" x="0" dy="1em" xml:space="preserve">(groups events per company)</tspan></text></g></g><g transform="translate(145.29666137695312, 1060.1760501861572)" id="flowchart-RedisSet-4895" class="node default redis flowchart-label"><rect height="65.31965637207031" width="205.9779052734375" y="-32.659828186035156" x="-102.98895263671875" ry="0" rx="0" style="" class="basic label-container"/><g transform="translate(0, -25.159828186035156)" style="" class="label"><rect/><text style=""><tspan class="row" x="0" dy="1em" xml:space="preserve">Redis</tspan><tspan class="row" x="0" dy="1em" xml:space="preserve">HS-COMP-SYNC_{company}</tspan><tspan class="row" x="0" dy="1em" xml:space="preserve">(aggregation set)</tspan></text></g></g><g transform="translate(229.08358001708984, 521.2581100463867)" id="flowchart-MQ_sched-4896" class="node default rabbit flowchart-label"><rect height="49.31965637207031" width="265.14768981933594" y="-24.659828186035156" x="-132.57384490966797" ry="0" rx="0" style="" class="basic label-container"/><g transform="translate(0, -17.159828186035156)" style="" class="label"><rect/><text style=""><tspan class="row" x="0" dy="1em" xml:space="preserve">RabbitMQ</tspan><tspan class="row" x="0" dy="1em" xml:space="preserve">scheduled msgs -&gt; schedule_writer</tspan></text></g></g><g transform="translate(229.08358001708984, 620.577766418457)" id="flowchart-SWriter-4897" class="node default worker flowchart-label"><rect height="49.31965637207031" width="173.5795440673828" y="-24.659828186035156" x="-86.7897720336914" ry="0" rx="0" style="" class="basic label-container"/><g transform="translate(0, -17.159828186035156)" style="" class="label"><rect/><text style=""><tspan class="row" x="0" dy="1em" xml:space="preserve">schedule_writer</tspan><tspan class="row" x="0" dy="1em" xml:space="preserve">stores scheduled msgs</tspan></text></g></g><g transform="translate(229.08358001708984, 727.8974227905273)" id="flowchart-RedisWait-4898" class="node default redis flowchart-label"><rect height="65.31965637207031" width="235.5138397216797" y="-32.659828186035156" x="-117.75691986083984" ry="0" rx="0" style="stroke-width:6px;stroke:#ff1744;" class="basic label-container"/><g transform="translate(0, -25.159828186035156)" style="" class="label"><rect/><text style=""><tspan class="row" x="0" dy="1em" xml:space="preserve">Redis</tspan><tspan class="row" x="0" dy="1em" xml:space="preserve">WAIT_QUEUE / REJECT_QUEUE</tspan><tspan class="row" x="0" dy="1em" xml:space="preserve">(scheduled messages)</tspan></text></g></g><g transform="translate(229.08358001708984, 835.2170791625977)" id="flowchart-SReader-4899" class="node default worker flowchart-label"><rect height="49.31965637207031" width="207.10781860351562" y="-24.659828186035156" x="-103.55390930175781" ry="0" rx="0" style="stroke-width:6px;stroke:#ff1744;" class="basic label-container"/><g transform="translate(0, -17.159828186035156)" style="" class="label"><rect/><text style=""><tspan class="row" x="0" dy="1em" xml:space="preserve">schedule_reader</tspan><tspan class="row" x="0" dy="1em" xml:space="preserve">(polls due scheduled msgs)</tspan></text></g></g><g transform="translate(229.08358001708984, 934.536735534668)" id="flowchart-Dispatch-4900" class="node default worker flowchart-label"><rect height="49.31965637207031" width="214.0530242919922" y="-24.659828186035156" x="-107.0265121459961" ry="0" rx="0" style="" class="basic label-container"/><g transform="translate(0, -17.159828186035156)" style="" class="label"><rect/><text style=""><tspan class="row" x="0" dy="1em" xml:space="preserve">aggregator_dispatcher</tspan><tspan class="row" x="0" dy="1em" xml:space="preserve">(collects &amp; clears Redis set)</tspan></text></g></g><g transform="translate(652.0706405639648, 1060.1760501861572)" id="flowchart-MQ_agg-4901" class="node default rabbit flowchart-label"><rect height="49.31965637207031" width="345.6351623535156" y="-24.659828186035156" x="-172.8175811767578" ry="0" rx="0" style="" class="basic label-container"/><g transform="translate(0, -17.159828186035156)" style="" class="label"><rect/><text style=""><tspan class="row" x="0" dy="1em" xml:space="preserve">RabbitMQ</tspan><tspan class="row" x="0" dy="1em" xml:space="preserve">queue: hubspot_company_aggregated_models</tspan></text></g></g><g transform="translate(652.0706405639648, 1167.4957065582275)" id="flowchart-Updater-4902" class="node default worker flowchart-label"><rect height="49.31965637207031" width="312.9128723144531" y="-24.659828186035156" x="-156.45643615722656" ry="0" rx="0" style="" class="basic label-container"/><g transform="translate(0, -17.159828186035156)" style="" class="label"><rect/><text style=""><tspan class="row" x="0" dy="1em" xml:space="preserve">hubspot_company_updater_new</tspan><tspan class="row" x="0" dy="1em" xml:space="preserve">(property managers; split create/update)</tspan></text></g></g><g transform="translate(668.4320526123047, 1285.1350212097168)" id="flowchart-HSCreate-4903" class="node default hubspot flowchart-label"><rect height="49.31965637207031" width="106.47023010253906" y="-24.659828186035156" x="-53.23511505126953" ry="0" rx="0" style="" class="basic label-container"/><g transform="translate(0, -17.159828186035156)" style="" class="label"><rect/><text style=""><tspan class="row" x="0" dy="1em" xml:space="preserve">HubSpot API</tspan><tspan class="row" x="0" dy="1em" xml:space="preserve">batch create</tspan></text></g></g><g transform="translate(826.7553405761719, 1285.1350212097168)" id="flowchart-HSUpdate-4904" class="node default hubspot flowchart-label"><rect height="49.31965637207031" width="110.17634582519531" y="-24.659828186035156" x="-55.088172912597656" ry="0" rx="0" style="" class="basic label-container"/><g transform="translate(0, -17.159828186035156)" style="" class="label"><rect/><text style=""><tspan class="row" x="0" dy="1em" xml:space="preserve">HubSpot API</tspan><tspan class="row" x="0" dy="1em" xml:space="preserve">batch update</tspan></text></g></g></g></g></g></svg>